#!OML:ASF E:\emotionWalksFemale\Project 1\Capture day 1\Session 1\Female1.ASF
:FULLY-SPECIFIED
:DEGREES
699
root 9.82934 15.5397 18.0512 -5.87873 -3.96776 4.14756
lowerback 7.75447 2.5363 -0.757088
upperback -3.43397 3.20341 -1.47598
thorax -7.92828 1.56087 -1.59438
lowerneck -6.38565 -2.31831 -6.45137
upperneck 6.98637 -2.84259 4.36394
head 3.62368 -1.41082 2.47159
rclavicle -6.36732e-016 -1.50082e-014
rhumerus -42.3816 12.5341 -92.4503
rradius 30.2966
rwrist 18.8928
rhand 2.1336 -52.8063
rfingers 7.12502
rthumb 27.6324 -80.7971
lclavicle -6.36732e-016 -1.50082e-014
lhumerus -44.3511 4.46961 80.0749
lradius 33.9745
lwrist -15.3136
lhand -6.78095 -33.6369
lfingers 7.12502
lthumb 19.0815 -4.55296
rfemur -1.09967 -0.97455 17.116
rtibia 65.6195
rfoot 21.0301 -12.9827
rtoes 5.77179
lfemur -2.33196 -15.4257 -30.9114
ltibia 12.6985
lfoot -9.23459 20.05
ltoes -5.15317
700
root 9.85085 15.5344 18.1715 -5.69517 -3.76546 4.82062
lowerback 7.64331 2.37009 -1.39388
upperback -3.46775 2.89919 -1.65093
thorax -7.92951 1.44007 -1.37486
lowerneck -6.28023 -2.14817 -6.15681
upperneck 6.8369 -2.62868 4.15825
head 3.52395 -1.30458 2.35578
rclavicle -2.92027e-014 2.73329e-015
rhumerus -42.6441 12.6044 -92.4159
rradius 30.2307
rwrist 18.574
rhand 1.99004 -53.011
rfingers 7.12502
rthumb 27.4951 -81.0237
lclavicle -2.92027e-014 2.73329e-015
lhumerus -43.8948 3.77915 80.5379
lradius 35.1914
lwrist -13.1398
lhand -4.03974 -31.4767
lfingers 7.12502
lthumb 21.7158 -2.67477
rfemur -2.97343 -1.23919 16.2328
rtibia 67.1547
rfoot 18.3392 -12.6277
rtoes 6.31154
lfemur -2.26337 -15.468 -31.922
ltibia 13.2019
lfoot -9.97841 19.9959
ltoes -4.94129
701
root 9.85651 15.5368 18.3039 -5.77283 -3.82228 4.22606
lowerback 7.81375 2.27296 -0.945784
upperback -3.38522 2.834 -1.40969
thorax -7.92935 1.39185 -1.36704
lowerneck -6.28766 -2.06739 -6.10216
upperneck 6.67778 -2.52302 4.17545
head 3.46259 -1.24872 2.35565
rclavicle 3.26255e-014 -1.15295e-014
rhumerus -42.7981 12.4175 -92.1311
rradius 30.2471
rwrist 18.5168
rhand 2.03023 -53.2327
rfingers 7.12502
rthumb 27.5335 -81.2393
lclavicle 3.26255e-014 -1.15295e-014
lhumerus -43.2642 3.16022 80.9722
lradius 35.7151
lwrist -12.2505
lhand -3.36713 -31.1742
lfingers 7.12502
lthumb 22.3616 -2.44833
rfemur -4.44623 -1.16079 17.1798
rtibia 68.2872
rfoot 15.7277 -12.4839
rtoes 5.72519
lfemur -1.90752 -15.5896 -31.5362
ltibia 13.8412
lfoot -10.8752 20.1674
ltoes -5.0753
702
root 9.86518 15.5358 18.432 -5.78315 -3.65454 3.95924
lowerback 7.75185 2.16057 -0.691185
upperback -3.2363 2.72002 -1.33252
thorax -7.72601 1.32703 -1.40357
lowerneck -6.2431 -2.01169 -5.96459
upperneck 6.51423 -2.45281 4.0794
head 3.38704 -1.21311 2.29925
rclavicle -1.92573e-015 -7.90169e-015
rhumerus -42.8207 11.9501 -91.7418
rradius 30.2224
rwrist 18.4883
rhand 2.18949 -53.232
rfingers 7.12502
rthumb 27.6858 -81.2142
lclavicle -1.92573e-015 -7.90169e-015
lhumerus -42.3627 2.55152 81.3127
lradius 35.7325
lwrist -12.0072
lhand -3.68848 -31.849
lfingers 7.12502
lthumb 22.0531 -3.08643
rfemur -5.98935 -1.34633 17.6862
rtibia 69.3274
rfoot 13.3187 -11.9043
rtoes 2.32899
lfemur -1.49325 -15.9297 -31.5402
ltibia 14.2083
lfoot -11.3914 20.4666
ltoes -5.96501
703
root 9.87576 15.531 18.5598 -5.69236 -3.40108 4.05765
lowerback 8.0165 1.9985 -0.945931
upperback -3.48433 2.47164 -1.27383
thorax -8.16432 1.21724 -1.18301
lowerneck -6.05074 -1.85887 -5.80231
upperneck 6.70267 -2.25573 3.80453
head 3.39333 -1.12477 2.18676
rclavicle -1.6524e-014 -5.96354e-016
rhumerus -43.4899 11.9109 -91.6121
rradius 30.1407
rwrist 18.2181
rhand 1.97301 -53.1176
rfingers 7.12502
rthumb 27.4788 -81.1329
lclavicle -1.6524e-014 -5.96354e-016
lhumerus -42.1473 2.08371 81.5997
lradius 35.8307
lwrist -11.8047
lhand -4.27305 -32.5812
lfingers 7.12502
lthumb 21.4917 -3.75351
rfemur -7.5792 -1.53193 17.7031
rtibia 70.1456
rfoot 11.0082 -11.8251
rtoes -0.240365
lfemur -1.2694 -16.2138 -31.9376
ltibia 14.7562
lfoot -12.0773 20.6894
ltoes -6.12849
704
root 9.88563 15.5292 18.6844 -5.55696 -3.13055 4.12247
lowerback 7.62036 1.83089 -1.06666
upperback -3.32194 2.24314 -1.27147
thorax -7.76623 1.1143 -1.05847
lowerneck -6.23517 -1.77523 -5.6844
upperneck 6.7712 -2.13639 3.6922
head 3.44104 -1.06563 2.13348
rclavicle -1.66234e-014 3.18055e-015
rhumerus -43.3377 11.8254 -91.3612
rradius 29.9384
rwrist 17.9162
rhand 1.69122 -53.2178
rfingers 7.12502
rthumb 27.2093 -81.2756
lclavicle -1.66234e-014 3.18055e-015
lhumerus -41.2106 1.62241 81.8804
lradius 35.9495
lwrist -11.56
lhand -4.4702 -32.8612
lfingers 7.12502
lthumb 21.3024 -4.01194
rfemur -9.1325 -1.61501 17.7557
rtibia 70.7504
rfoot 8.80223 -12.3119
rtoes -1.93068
lfemur -0.960607 -16.2691 -32.2615
ltibia 14.9268
lfoot -12.478 20.7144
ltoes -6.59279
705
root 9.89823 15.5257 18.8071 -5.44021 -2.7182 4.18766
lowerback 7.73489 1.61951 -1.19367
upperback -3.49224 1.94348 -1.24439
thorax -8.02339 0.974358 -0.924618
lowerneck -6.03697 -1.70873 -5.74905
upperneck 7.04105 -2.06793 3.82749
head 3.49712 -1.03199 2.19736
rclavicle -1.56543e-014 -4.96962e-016
rhumerus -43.7205 11.3589 -90.9346
rradius 29.7901
rwrist 18.1799
rhand 1.75238 -53.4251
rfingers 7.12502
rthumb 27.2678 -81.4737
lclavicle -1.56543e-014 -4.96962e-016
lhumerus -40.901 1.06233 82.2093
lradius 36.0763
lwrist -11.7903
lhand -4.97489 -33.1242
lfingers 7.12502
lthumb 20.8175 -4.22101
rfemur -10.5664 -1.8806 17.757
rtibia 71.1454
rfoot 6.52655 -13.1468
rtoes -3.04187
lfemur -0.553428 -16.3899 -32.621
ltibia 14.9802
lfoot -12.8287 20.6361
ltoes -6.59466
706
root 9.91283 15.5151 18.9317 -5.36221 -2.24739 4.40578
lowerback 7.7934 1.42 -1.37886
upperback -3.55128 1.65092 -1.2769
thorax -8.12699 0.840168 -0.815593
lowerneck -6.01301 -1.65932 -5.7475
upperneck 7.26556 -2.00861 3.84468
head 3.56782 -1.0038 2.20814
rclavicle -1.08586e-014 3.27995e-015
rhumerus -43.8639 10.7536 -90.3243
rradius 29.6637
rwrist 18.993
rhand 2.10365 -53.5954
rfingers 7.12502
rthumb 27.6037 -81.5908
lclavicle -1.08586e-014 3.27995e-015
lhumerus -40.4608 0.473905 82.6061
lradius 35.8182
lwrist -13.2664
lhand -7.83908 -34.0747
lfingers 7.12502
lthumb 18.0637 -4.89348
rfemur -11.9105 -2.26911 17.5453
rtibia 71.3549
rfoot 4.34671 -14.1417
rtoes -2.56036
lfemur -0.0629335 -16.6297 -33.1897
ltibia 15.0757
lfoot -13.1599 20.6181
ltoes -6.90764
707
root 9.91922 15.5045 19.0642 -5.35251 -1.91282 4.49192
lowerback 7.77231 1.26674 -1.56465
upperback -3.54957 1.42713 -1.25267
thorax -8.11874 0.741565 -0.652198
lowerneck -5.99341 -1.57772 -5.8161
upperneck 7.42869 -1.90733 3.97043
head 3.61953 -0.951955 2.27088
rclavicle 1.31695e-015 -6.95746e-015
rhumerus -43.9946 10.3161 -89.8767
rradius 29.5504
rwrist 19.4742
rhand 2.00854 -53.4664
rfingers 7.12502
rthumb 27.5128 -81.4763
lclavicle 1.31695e-015 -6.95746e-015
lhumerus -39.8983 0.200319 82.7909
lradius 35.9715
lwrist -13.454
lhand -7.64364 -33.9556
lfingers 7.12502
lthumb 18.2517 -4.79186
rfemur -13.1496 -2.45101 17.5775
rtibia 71.333
rfoot 2.36859 -15.0537
rtoes -2.27605
lfemur 0.485751 -16.7687 -33.5828
ltibia 15.1808
lfoot -13.279 20.7038
ltoes -9.97436
708
root 9.91865 15.4993 19.2041 -5.40077 -1.62174 4.35992
lowerback 7.7515 1.10144 -1.69265
upperback -3.55737 1.20124 -1.12728
thorax -8.11995 0.641957 -0.414444
lowerneck -5.90649 -1.51915 -6.03794
upperneck 7.59832 -1.83294 4.16703
head 3.66662 -0.915886 2.3854
rclavicle 2.2736e-014 -2.5842e-015
rhumerus -44.2653 10.1649 -89.6323
rradius 29.451
rwrist 19.2419
rhand 1.24587 -53.1306
rfingers 7.12502
rthumb 26.7831 -81.2543
lclavicle 2.2736e-014 -2.5842e-015
lhumerus -39.4503 0.0479499 82.9143
lradius 36.1561
lwrist -13.5515
lhand -6.93288 -33.5992
lfingers 7.12502
lthumb 18.9354 -4.50089
rfemur -14.2423 -2.54889 17.8954
rtibia 71.0737
rfoot 0.406433 -15.826
rtoes -2.90273
lfemur 1.06833 -16.999 -33.7326
ltibia 15.3657
lfoot -13.7033 20.8065
ltoes -11.9584
709
root 9.91414 15.4952 19.3432 -5.4725 -1.282 4.18961
lowerback 7.86841 0.944902 -1.83109
upperback -3.603 0.98137 -1.00485
thorax -8.24055 0.546273 -0.17811
lowerneck -5.77248 -1.4512 -5.43983
upperneck 7.76327 -1.75635 3.57418
head 3.66899 -0.886427 2.0759
rclavicle -1.84373e-014 -1.5704e-014
rhumerus -44.5886 9.88895 -89.3521
rradius 29.4438
rwrist 18.9586
rhand 0.395936 -53.0776
rfingers 7.12502
rthumb 25.9696 -81.3233
lclavicle -1.84373e-014 -1.5704e-014
lhumerus -39.0541 -0.530237 83.1755
lradius 36.3361
lwrist -13.2671
lhand -6.66016 -33.5682
lfingers 7.12502
lthumb 19.1976 -4.49573
rfemur -15.2393 -2.59122 18.2888
rtibia 70.582
rfoot -1.2978 -16.5545
rtoes -3.12974
lfemur 1.54805 -17.4576 -33.8501
ltibia 15.8456
lfoot -14.7367 20.7636
ltoes -9.7209
710
root 9.90346 15.4849 19.476 -5.41459 -0.915927 4.22749
lowerback 7.89792 0.83442 -2.27933
upperback -3.67548 0.787393 -0.911591
thorax -8.34287 0.479819 0.199546
lowerneck -5.71333 -1.44189 -5.20698
upperneck 7.93198 -1.74507 3.27721
head 3.70549 -0.887681 1.93371
rclavicle -1.78409e-014 1.59028e-015
rhumerus -44.9146 9.42361 -88.9245
rradius 29.5632
rwrist 18.9435
rhand 0.00722929 -53.2025
rfingers 7.12502
rthumb 25.5973 -81.5023
lclavicle -1.78409e-014 1.59028e-015
lhumerus -38.6239 -1.07907 83.4589
lradius 36.5341
lwrist -13.2536
lhand -6.84712 -33.7467
lfingers 7.12502
lthumb 19.0178 -4.65643
rfemur -16.4167 -2.47535 18.5365
rtibia 69.957
rfoot -2.67966 -17.3751
rtoes -2.16861
lfemur 1.7308 -17.7806 -34.0884
ltibia 16.532
lfoot -15.7937 20.4874
ltoes -7.97573
